<?xml version="1.0" encoding="UTF-8"?>
<svg width="149px" height="18px" viewBox="0 0 149 18" version="1.1" xmlns="http://www.w3.org/2000/svg" xmlns:xlink="http://www.w3.org/1999/xlink">
    <!-- Generator: Sketch 47 (45396) - http://www.bohemiancoding.com/sketch -->
    <title>Group 3</title>
    <desc>Created with Sketch.</desc>
    <defs></defs>
    <g id="Page-1" stroke="none" stroke-width="1" fill="none" fill-rule="evenodd">
        <g id="Group-3" transform="translate(0.000000, -4.000000)">
            <text id="dashboard" font-family="HelveticaNeue-Bold, Helvetica Neue" font-size="22" font-weight="bold" fill="#E4E6E9">
                <tspan x="32" y="21">dashboard.</tspan>
            </text>
            <g id="Group-2" transform="translate(0.000000, 4.000000)">
                <path d="M1,5 L5,5 L5,5 C5.55228475,5 6,5.44771525 6,6 L6,10.8948568 L6,17 L6,17 C6,17.5522847 5.55228475,18 5,18 L1,18 L1,18 C0.44771525,18 6.76353751e-17,17.5522847 0,17 L0,6 L0,6 C-6.76353751e-17,5.44771525 0.44771525,5 1,5 Z" id="Rectangle-2" fill="#8D98A6"></path>
                <rect id="Rectangle-3" fill="#617388" x="0" y="0" width="24" height="4" rx="1"></rect>
                <rect id="Rectangle-3" fill="#8D98A6" x="7" y="5" width="17" height="13" rx="1"></rect>
            </g>
        </g>
    </g>
</svg>