<?xml version="1.0" encoding="utf-8"?>
<!-- Generator: Adobe Illustrator 19.1.0, SVG Export Plug-In . SVG Version: 6.00 Build 0)  -->
<svg version="1.1" id="Layer_1" xmlns="http://www.w3.org/2000/svg" xmlns:xlink="http://www.w3.org/1999/xlink" x="0px" y="0px"
	 viewBox="0 0 116.628 116.628" style="enable-background:new 0 0 116.628 116.628;" xml:space="preserve">
<style type="text/css">
	.st0{fill:none;stroke:#40e0d0;stroke-width:2;stroke-linecap:round;stroke-linejoin:round;stroke-miterlimit:10;}
	.st1{fill:none;stroke:#232323;stroke-width:2;stroke-linecap:round;stroke-linejoin:round;stroke-miterlimit:10;}
	.st2{fill:none;stroke:#1E88E5;stroke-width:2;stroke-linecap:round;stroke-linejoin:round;stroke-miterlimit:10;}
	.st3{fill:none;stroke:#40e0d0;stroke-width:2;stroke-miterlimit:10;stroke-dasharray:4,4;}
</style>
<g>
	<g>
		<line class="st0" x1="58.314" y1="22.598" x2="58.314" y2="6.652"/>
		<polyline class="st0" points="63.753,11.852 58.284,6.383 52.875,11.793 		"/>
	</g>
	<g>
		<line class="st0" x1="58.314" y1="92.746" x2="58.314" y2="108.692"/>
		<polyline class="st0" points="52.875,103.492 58.343,108.961 63.753,103.551 		"/>
	</g>
	<g>
		<path class="st1" d="M71.838,40.067"/>
		<path class="st2" d="M44.79,75.277l-7.554,1.878c-0.462,0-0.839-0.378-0.839-0.839V39.029c0-0.462,0.378-0.839,0.839-0.839
			l33.762-8.393c0.462,0,0.839,0.378,0.839,0.839v9.432"/>
		<path class="st3" d="M71.838,42.067v25.855c0,0.462-0.378,0.839-0.839,0.839L44.79,75.277"/>
		<path class="st2" d="M79.391,77.155l-33.762,8.393c-0.462,0-0.839-0.378-0.839-0.839V47.422c0-0.462,0.378-0.839,0.839-0.839
			l33.762-8.393c0.462,0,0.839,0.378,0.839,0.839v37.287C80.231,76.777,79.853,77.155,79.391,77.155z"/>
	</g>
	<g>
		<line class="st0" x1="93.387" y1="57.672" x2="109.334" y2="57.672"/>
		<polyline class="st0" points="104.134,63.111 109.603,57.642 104.193,52.233 		"/>
	</g>
	<g>
		<line class="st0" x1="23.24" y1="57.672" x2="7.294" y2="57.672"/>
		<polyline class="st0" points="12.494,52.233 7.025,57.702 12.434,63.111 		"/>
	</g>
</g>
</svg>
