<?xml version="1.0" encoding="utf-8"?>
<!-- Generator: Adobe Illustrator 19.1.0, SVG Export Plug-In . SVG Version: 6.00 Build 0)  -->
<svg version="1.1" id="Layer_1" xmlns="http://www.w3.org/2000/svg" xmlns:xlink="http://www.w3.org/1999/xlink" x="0px" y="0px"
	 viewBox="0 0 116.628 116.628" style="enable-background:new 0 0 116.628 116.628;" xml:space="preserve">
<style type="text/css">
	.st0{fill:none;stroke:#1E88E5;stroke-width:2;stroke-linecap:round;stroke-linejoin:round;stroke-miterlimit:10;}
	.st1{fill:none;stroke:#40e0d0;stroke-width:2;stroke-linecap:round;stroke-linejoin:round;stroke-miterlimit:10;}
</style>
<g>
	<path class="st0" d="M91.314,56.314V44.087c0-1.105-0.834-1.773-1.939-1.773H73.314V39.47c1-1.618,2.746-3.901,2.746-6.437
		c0-4.905-3.99-8.881-8.895-8.881s-8.794,3.976-8.794,8.881c0,2.576,0.943,4.889,2.943,6.511v2.77H45.25
		c-1.104,0-1.936,0.668-1.936,1.773v16.227h-2.786c-1.618-1-3.901-2.836-6.438-2.836c-4.905,0-8.881,3.945-8.881,8.85
		c0,4.905,3.976,8.861,8.881,8.861c2.577,0,4.89-0.876,6.512-2.876h2.711v15.898c0,1.105,0.832,2.102,1.936,2.102h13.064"/>
	<path class="st1" d="M91.075,79.639L87.4,76.597c0.063-0.507,0.1-1.023,0.1-1.548c0-0.491-0.032-0.974-0.087-1.45l3.656-2.944
		c0.28-0.162,0.376-0.524,0.214-0.803l-3.498-6.035c-0.162-0.28-0.524-0.376-0.803-0.214l-4.274,1.671
		c-0.852-0.661-1.79-1.216-2.798-1.638l-0.706-4.587c0-0.323-0.265-0.588-0.588-0.588h-6.976c-0.323,0-0.588,0.265-0.588,0.588
		l-0.706,4.587c-0.986,0.414-1.906,0.953-2.743,1.595l-4.185-1.701c-0.278-0.166-0.64-0.075-0.806,0.203l-3.579,5.988
		c-0.166,0.277-0.075,0.64,0.203,0.806l3.616,2.993c-0.062,0.502-0.098,1.012-0.098,1.531c0,0.526,0.037,1.042,0.1,1.551
		l-3.612,2.909c-0.28,0.162-0.376,0.524-0.214,0.803l3.498,6.035c0.162,0.28,0.524,0.376,0.803,0.214l4.292-1.678
		c0.832,0.636,1.745,1.169,2.724,1.58l0.706,4.587c0,0.323,0.265,0.588,0.588,0.588h6.976c0.323,0,0.588-0.265,0.588-0.588
		l0.706-4.587c0.972-0.408,1.88-0.937,2.707-1.567l4.278,1.739c0.278,0.166,0.64,0.075,0.806-0.203l3.579-5.988
		C91.444,80.167,91.353,79.805,91.075,79.639z M75.127,80.925c-3.245,0-5.875-2.631-5.875-5.875c0-3.245,2.631-5.875,5.875-5.875
		s5.875,2.631,5.875,5.875C81.003,78.294,78.372,80.925,75.127,80.925z"/>
</g>
</svg>
